# xmcd
#
# Track frame offsets: 
#        150
#        12450
#        33488
#        49186
#        68449
#        88420
#        101890
#        113377
#        129075
#        143280
#        163850
#        176209
#        198023
#        214818
#        233856
#
# Disc length: 3350 seconds
#
# Revision: 0
# Processed by: cddbd v1.5.1PL0 Copyright (c) Steve Scherf et al.
# Submitted via: ExactAudioCopy v0.95a5
#
DISCID=c70d140f
DTITLE=123 min. - Shooba Dooba
DYEAR=1999
DGENRE=Rock
TTITLE0=Illusion
TTITLE1=Tilagetcha
TTITLE2=Play, My Finger
TTITLE3=Tutti-Frutti In Realtime
TTITLE4=Hookered
TTITLE5=No More Day
TTITLE6=She Won't Care
TTITLE7=Your Song
TTITLE8=C'mon, Back!
TTITLE9=To Move On
TTITLE10=I'm In You
TTITLE11=I Haven't Got A Lady
TTITLE12=I'm Gonna Leave You Right Now
TTITLE13=September
TTITLE14=Dance Or Die
EXTD=
EXTT0=
EXTT1=
EXTT2=
EXTT3=
EXTT4=
EXTT5=
EXTT6=
EXTT7=
EXTT8=
EXTT9=
EXTT10=
EXTT11=
EXTT12=
EXTT13=
EXTT14=
PLAYORDER=
